<?xml version="1.0" encoding="iso-8859-1"?>
<!-- Generator: Adobe Illustrator 19.0.0, SVG Export Plug-In . SVG Version: 6.00 Build 0)  -->
<svg version="1.1" id="Layer_1" xmlns="http://www.w3.org/2000/svg" xmlns:xlink="http://www.w3.org/1999/xlink" x="0px" y="0px"
	 viewBox="0 0 512 512" style="enable-background:new 0 0 512 512;" xml:space="preserve">
<path style="fill:#2D2D2D;" d="M0,355.201v-324c0.103-5.701,4.699-10.297,10.4-10.4h491.2c5.701,0.103,10.297,4.699,10.4,10.4v324H0
	z"/>
<g>
	<path style="fill:#BCBCBC;" d="M512,355.201v41.6c-0.103,5.701-4.699,10.297-10.4,10.4H10.4c-5.701-0.103-10.297-4.699-10.4-10.4
		v-41.6H512z"/>
	<rect x="146.401" y="480.799" style="fill:#BCBCBC;" width="219.197" height="10.4"/>
</g>
<polygon style="fill:#2D2D2D;" points="328.8,480.802 183.2,480.802 193.6,407.202 318.4,407.202 "/>
<rect x="20.802" y="41.605" style="fill:#FFFFFF;" width="470.397" height="292.803"/>
<polygon points="318.4,407.202 193.6,407.202 187.793,448.282 320.272,420.426 "/>
<g>
	<path style="fill:#E21B1B;" d="M67.12,120.978l71.808-34.84v13.6l-56.96,26.512v0.296l56.96,26.664v13.488L67.12,131.89
		C67.12,131.89,67.12,120.978,67.12,120.978z"/>
	<path style="fill:#E21B1B;" d="M149.36,172.802L186.32,62.953h13.032L162.4,172.802H149.36z"/>
	<path style="fill:#E21B1B;" d="M280.249,132.194L208.44,166.73v-13.48l57.864-26.664v-0.296L208.44,99.626V86.137l71.808,34.536
		V132.194z"/>
	<path style="fill:#E21B1B;" d="M231.768,236.33l71.808-34.84v13.6l-56.968,26.512v0.296l56.96,26.664v13.52l-71.8-34.88V236.33z"/>
	<path style="fill:#E21B1B;" d="M314.008,288.145l36.96-109.833h13.032l-36.96,109.833H314.008z"/>
	<path style="fill:#E21B1B;" d="M444.897,247.546l-71.808,34.536v-13.488l57.864-26.664v-0.328l-57.864-26.664V201.49l71.808,34.512
		V247.546z"/>
</g>
<g>
</g>
<g>
</g>
<g>
</g>
<g>
</g>
<g>
</g>
<g>
</g>
<g>
</g>
<g>
</g>
<g>
</g>
<g>
</g>
<g>
</g>
<g>
</g>
<g>
</g>
<g>
</g>
<g>
</g>
</svg>
